<svg xmlns="http://www.w3.org/2000/svg" xmlns:xlink="http://www.w3.org/1999/xlink" version="1.1" x="0px" y="0px" width="100px" height="100px" viewBox="0 0 100 100" enable-background="new 0 0 100 100" xml:space="preserve">
<g id="cache_1_">
	<path d="M26.667,74.032H20H6.667C0,74.032,0,80.699,0,80.699v5.674h5.333v-6.667H8v6.667h7.333v-6.667H18v6.667h7.333v-6.667H28   v6.667h5.333c0,0,0,0.993,0-5.674S26.667,74.032,26.667,74.032z"/>
	<path d="M93.333,74.032h-6.667H73.333c-6.667,0-6.667,6.667-6.667,6.667v5.674H72v-6.667h2.667v6.667H82v-6.667h2.667v6.667H92   v-6.667h2.667v6.667H100c0,0,0,0.993,0-5.674S93.333,74.032,93.333,74.032z"/>
	<g>
		<path d="M33.333,86.373L33.333,86.373H28l0,0C29.696,86.373,31.479,86.373,33.333,86.373z"/>
		<path d="M18,86.373c2.031,0,4.517,0,7.333,0l0,0H18L18,86.373z"/>
		<path d="M15.333,86.373h-3.057c0.001,0.003,0.002,0,0.003,0C12.425,86.373,13.521,86.373,15.333,86.373L15.333,86.373z"/>
		<path d="M84.667,86.373c1.771,0,2.859,0,3.052,0c0.001,0,0.002,0.004,0.004,0H84.667L84.667,86.373z"/>
		<path d="M72,86.373L72,86.373h-5.333l0,0C68.521,86.373,70.303,86.373,72,86.373z"/>
		<path d="M73.333,62.373L53.744,51.179c-1.187,0.27-2.42,0.416-3.689,0.416c-1.296,0-2.557-0.153-3.768-0.434L26.667,62.373    L16.102,51.808c-2.852,4.545-4.821,14.361-5.653,19.891H20h6.667c0,0,9.333,0,9.333,9.333c0,4.238,0,2.463,0,4.007    c0,0.886,0,1.333,0,1.333v0.01c8.928,0.001,19.071,0.001,28,0.001v-0.012v-1.333v-4.007c0,0,0-9.333,9.333-9.333h13.333h2.884    c-0.832-5.53-2.801-15.345-5.653-19.891L73.333,62.373z"/>
		<path d="M82,86.373L82,86.373h-7.333l0,0C77.481,86.373,79.969,86.373,82,86.373z"/>
	</g>
</g>
<g id="Calque_2">
	<g>
		<path d="M59.251,47.121c0,0-0.001,0.001-0.002,0.001c2.275-1.416,4.195-3.336,5.611-5.61L78.082,28.29    c-0.383-0.519-0.772-1.018-1.164-1.502L66.894,36.812c0,0.001-0.001,0.003-0.001,0.004c0.384-1.438,0.607-2.94,0.607-4.499    c0-1.273-0.145-2.512-0.404-3.708l5.966-5.966c-0.47-0.438-0.941-0.854-1.415-1.252L66.5,26.54c0,0.002,0.001,0.004,0.002,0.006    c-0.227-0.647-0.491-1.275-0.79-1.884l4.456-4.456c-0.518-0.393-1.035-0.765-1.551-1.117l-3.861,3.861    c-0.344-0.539-0.71-1.061-1.11-1.557l3.349-3.349c-0.57-0.346-1.137-0.669-1.698-0.968l-2.905,2.905    c-0.445-0.445-0.92-0.86-1.412-1.255l2.536-2.536c-0.632-0.293-1.254-0.562-1.863-0.803l-2.229,2.416    c-0.55-0.352-1.122-0.771-1.712-0.771h0.001l1.983-2.169c-0.712-0.234-1.399-0.529-2.058-0.702l-1.804,1.758    c-0.674-0.237-1.361-0.466-2.07-0.62l1.703-1.714C52.154,12.944,50,13.045,50,13.045s-2.154-0.243-5.465,0.398l1.725,1.589    c0,0,0.001,0,0.002,0c-0.709,0-1.397,0.498-2.07,0.739c0.001-0.001,0.003,0.065,0.005,0.064l-1.833-1.8    c-0.658,0.173-1.346,0.391-2.058,0.625l2.019,2.027c-0.587,0.291-1.157,0.613-1.705,0.966l-2.271-2.269    c-0.609,0.241-1.231,0.511-1.863,0.804l2.583,2.584c-0.49,0.398-0.958,0.819-1.402,1.268c0-0.001,0.001-0.001,0.001-0.001    l-2.963-2.963c-0.562,0.299-1.128,0.623-1.698,0.968l3.412,3.412c-0.397,0.499-0.763,1.022-1.105,1.563c0,0,0,0,0-0.001    l-3.93-3.93c-0.516,0.352-1.033,0.724-1.55,1.117l4.53,4.53c0-0.001,0.001-0.003,0.002-0.004c-0.296,0.612-0.56,1.241-0.784,1.89    l-5.229-5.229c-0.473,0.398-0.944,0.814-1.414,1.252l6.054,6.054c-0.247,1.168-0.509,2.378-0.509,3.62    c0,1.611,0.517,3.164,0.517,4.646c0,0,0-0.001,0-0.001L22.954,26.788c-0.392,0.484-0.717,0.983-1.101,1.502l13.538,13.506    c1.337,2.06,3.109,3.816,5.169,5.153l3.068,3.06l1.631-0.93c1.524,0.435,3.13,0.683,4.793,0.683c1.637,0,3.215-0.242,4.717-0.663    l1.593,0.91L59.251,47.121z M67.087,28.575c-0.078-0.356-0.171-0.706-0.271-1.054C66.918,27.868,67.009,28.219,67.087,28.575z     M33.292,27.531c-0.107,0.375-0.21,0.75-0.292,1.134C33.082,28.281,33.182,27.904,33.292,27.531z M33.641,38.176    c0.018,0.05,0.036,0.1,0.055,0.149C33.678,38.276,33.659,38.227,33.641,38.176z M51.986,14.985    c-0.018-0.002-0.036-0.006-0.054-0.008C51.951,14.979,51.968,14.983,51.986,14.985z M42.664,48.101    c0.07,0.033,0.138,0.068,0.208,0.1C42.801,48.169,42.733,48.134,42.664,48.101z M43.885,48.618    c0.098,0.037,0.196,0.073,0.295,0.108C44.082,48.69,43.983,48.655,43.885,48.618z M48.512,14.951    c0.508-0.047,1.022-0.078,1.543-0.078C49.534,14.873,49.021,14.906,48.512,14.951z M46.936,15.167    c0.397-0.073,0.798-0.137,1.205-0.184C47.733,15.027,47.333,15.095,46.936,15.167z M56.042,48.685    c-0.052,0.019-0.104,0.039-0.158,0.058C55.938,48.724,55.99,48.704,56.042,48.685z"/>
		<path d="M75.694,25.345c-0.424-0.479-0.852-0.941-1.283-1.383l-6.98,6.98c0.036,0.456,0.069,0.911,0.069,1.375    c0,0.435-0.034,0.86-0.065,1.287L75.694,25.345z"/>
		<path d="M25.589,23.962c-0.431,0.442-0.858,0.905-1.283,1.383l8.375,8.375c-0.037-0.464-0.071-0.93-0.071-1.403    c0-0.429,0.034-0.849,0.064-1.27L25.589,23.962z"/>
		<path d="M81.224,33.148l-19.77,19.77l1.697,0.97l19.01-19.01C81.855,34.284,81.542,33.71,81.224,33.148z"/>
		<path d="M79.186,29.854L58.061,50.979l1.697,0.97L80.236,31.47C79.891,30.913,79.54,30.378,79.186,29.854z"/>
		<path d="M19.764,31.47l20.479,20.478l1.697-0.97L20.814,29.854C20.46,30.378,20.109,30.913,19.764,31.47z"/>
		<path d="M17.838,34.877l19.01,19.01l1.697-0.97l-19.77-19.77C18.458,33.71,18.145,34.284,17.838,34.877z"/>
		<path d="M14.631,42.337l15.429,15.429l1.697-0.97L15.353,40.392C15.105,41.024,14.866,41.676,14.631,42.337z"/>
		<path d="M84.647,40.392L68.242,56.797l1.697,0.97l15.429-15.429C85.134,41.676,84.895,41.024,84.647,40.392z"/>
		<path d="M83.042,36.664L64.848,54.857l1.697,0.97L83.87,38.503C83.6,37.875,83.324,37.262,83.042,36.664z"/>
		<path d="M16.13,38.503l17.324,17.324l1.697-0.97L16.958,36.664C16.676,37.262,16.4,37.875,16.13,38.503z"/>
		<path d="M86.042,44.331L71.636,58.736l1.697,0.97l13.333-13.333C86.465,45.676,86.256,44.999,86.042,44.331z"/>
		<path d="M13.333,46.373l13.333,13.333l1.697-0.97L13.958,44.331C13.745,44.999,13.534,45.676,13.333,46.373z"/>
	</g>
</g>
</svg>